<mxfile host="app.diagrams.net" modified="2023-12-22T03:14:40.657Z" agent="Mozilla/5.0 (Windows NT 10.0; Win64; x64) AppleWebKit/537.36 (KHTML, like Gecko) Chrome/120.0.0.0 Safari/537.36" etag="dunVo63YE13iO0-Tv2w_" version="22.1.11" type="github">
  <diagram name="20231222" id="fWnAwtYzaFjnDb0Ai4UA">
    <mxGraphModel dx="1434" dy="818" grid="1" gridSize="10" guides="1" tooltips="1" connect="1" arrows="1" fold="1" page="1" pageScale="1" pageWidth="827" pageHeight="1169" math="0" shadow="0">
      <root>
        <mxCell id="0" />
        <mxCell id="1" parent="0" />
        <mxCell id="0SGao8oZKVO_nWCi-jgn-1" value="火" style="text;html=1;strokeColor=none;fillColor=none;align=center;verticalAlign=middle;whiteSpace=wrap;rounded=0;shadow=0;" vertex="1" parent="1">
          <mxGeometry x="99" y="75" width="60" height="30" as="geometry" />
        </mxCell>
        <mxCell id="0SGao8oZKVO_nWCi-jgn-2" value="水" style="text;html=1;strokeColor=none;fillColor=none;align=center;verticalAlign=middle;whiteSpace=wrap;rounded=0;shadow=0;" vertex="1" parent="1">
          <mxGeometry x="179" y="75" width="60" height="30" as="geometry" />
        </mxCell>
        <mxCell id="0SGao8oZKVO_nWCi-jgn-3" value="木" style="text;html=1;strokeColor=none;fillColor=none;align=center;verticalAlign=middle;whiteSpace=wrap;rounded=0;shadow=0;" vertex="1" parent="1">
          <mxGeometry x="259" y="75" width="60" height="30" as="geometry" />
        </mxCell>
        <mxCell id="0SGao8oZKVO_nWCi-jgn-4" value="金" style="text;html=1;strokeColor=none;fillColor=none;align=center;verticalAlign=middle;whiteSpace=wrap;rounded=0;shadow=0;" vertex="1" parent="1">
          <mxGeometry x="339" y="75" width="60" height="30" as="geometry" />
        </mxCell>
        <mxCell id="0SGao8oZKVO_nWCi-jgn-5" value="土" style="text;html=1;strokeColor=none;fillColor=none;align=center;verticalAlign=middle;whiteSpace=wrap;rounded=0;shadow=0;" vertex="1" parent="1">
          <mxGeometry x="419" y="75" width="60" height="30" as="geometry" />
        </mxCell>
        <mxCell id="0SGao8oZKVO_nWCi-jgn-6" value="日" style="text;html=1;strokeColor=none;fillColor=none;align=center;verticalAlign=middle;whiteSpace=wrap;rounded=0;shadow=0;" vertex="1" parent="1">
          <mxGeometry x="499" y="75" width="60" height="30" as="geometry" />
        </mxCell>
        <mxCell id="0SGao8oZKVO_nWCi-jgn-7" value="月" style="text;html=1;strokeColor=none;fillColor=none;align=center;verticalAlign=middle;whiteSpace=wrap;rounded=0;shadow=0;" vertex="1" parent="1">
          <mxGeometry x="19" y="75" width="60" height="30" as="geometry" />
        </mxCell>
        <mxCell id="0SGao8oZKVO_nWCi-jgn-8" value="&lt;h1&gt;テーマ：行動を変える戦略&lt;/h1&gt;" style="text;html=1;strokeColor=none;fillColor=none;spacing=5;spacingTop=-20;whiteSpace=wrap;overflow=hidden;rounded=0;shadow=0;" vertex="1" parent="1">
          <mxGeometry x="40" y="40" width="480" height="40" as="geometry" />
        </mxCell>
        <mxCell id="0SGao8oZKVO_nWCi-jgn-9" value="" style="endArrow=classic;html=1;rounded=0;shadow=0;" edge="1" parent="1">
          <mxGeometry width="50" height="50" relative="1" as="geometry">
            <mxPoint x="41" y="110" as="sourcePoint" />
            <mxPoint x="600" y="110" as="targetPoint" />
          </mxGeometry>
        </mxCell>
        <mxCell id="0SGao8oZKVO_nWCi-jgn-10" value="&lt;h1&gt;今週の振り返り&lt;/h1&gt;・&lt;b&gt;かなり余力がある状態&lt;/b&gt;。自分の人生の幸せを噛み締めながら能力を少しづつ伸ばしている。&lt;br&gt;そのせいか、週の後半は「行動を変える戦略」の習得が減速した。&lt;br&gt;&lt;br&gt;・「行動を変えるデザイン」の第二部までこれたが、実用的な技が増えている状況。&lt;br&gt;&lt;br&gt;・加えて、TreasureMapの育成と10種類のテンプレートの作成も出来上がりつつある。&lt;br&gt;&lt;span style=&quot;background-color: initial;&quot;&gt;&lt;br&gt;&lt;/span&gt;" style="text;html=1;strokeColor=none;fillColor=none;spacing=5;spacingTop=-20;whiteSpace=wrap;overflow=hidden;rounded=0;shadow=0;" vertex="1" parent="1">
          <mxGeometry x="610" y="200" width="190" height="370" as="geometry" />
        </mxCell>
        <mxCell id="0SGao8oZKVO_nWCi-jgn-11" value="&lt;h1&gt;&lt;/h1&gt;&lt;h1 style=&quot;border-color: var(--border-color);&quot;&gt;やることリスト&lt;/h1&gt;・行動心理学の基礎（書籍を前に進める）&lt;br&gt;" style="text;html=1;strokeColor=none;fillColor=none;spacing=5;spacingTop=-20;whiteSpace=wrap;overflow=hidden;rounded=0;shadow=0;" vertex="1" parent="1">
          <mxGeometry x="610" y="40" width="190" height="160" as="geometry" />
        </mxCell>
        <mxCell id="0SGao8oZKVO_nWCi-jgn-21" value="XP&#xa;ペアプロ" style="rounded=1;fillColor=#999999;strokeColor=none;shadow=0;gradientColor=none;fontStyle=1;fontColor=#FFFFFF;fontSize=14;" vertex="1" parent="1">
          <mxGeometry x="40" y="120" width="70" height="150" as="geometry" />
        </mxCell>
        <mxCell id="0SGao8oZKVO_nWCi-jgn-25" value="IaC&#xa;メリット" style="rounded=1;fillColor=#999999;strokeColor=none;shadow=0;gradientColor=none;fontStyle=1;fontColor=#FFFFFF;fontSize=14;" vertex="1" parent="1">
          <mxGeometry x="360" y="120" width="70" height="70" as="geometry" />
        </mxCell>
        <mxCell id="0SGao8oZKVO_nWCi-jgn-26" value="習慣を&#xa;作る&#xa;戦略" style="rounded=1;fillColor=#6666FF;strokeColor=#6666FF;shadow=0;gradientColor=none;fontStyle=1;fontColor=#FFFFFF;fontSize=14;" vertex="1" parent="1">
          <mxGeometry x="440" y="120" width="71" height="70" as="geometry" />
        </mxCell>
        <mxCell id="0SGao8oZKVO_nWCi-jgn-27" value="" style="shadow=0;dashed=0;html=1;strokeColor=none;fillColor=#006633;labelPosition=center;verticalLabelPosition=bottom;verticalAlign=top;align=center;outlineConnect=0;shape=mxgraph.veeam.checked;" vertex="1" parent="1">
          <mxGeometry x="439" y="120" width="20" height="21" as="geometry" />
        </mxCell>
        <mxCell id="0SGao8oZKVO_nWCi-jgn-28" value="習慣を&#xa;やめさえる&#xa;戦略" style="rounded=1;fillColor=#6666FF;strokeColor=#6666FF;shadow=0;gradientColor=none;fontStyle=1;fontColor=#FFFFFF;fontSize=14;" vertex="1" parent="1">
          <mxGeometry x="439" y="200" width="71" height="70" as="geometry" />
        </mxCell>
        <mxCell id="0SGao8oZKVO_nWCi-jgn-29" value="4+2&#xa;レベル確認" style="rounded=1;fillColor=#7EA6E0;strokeColor=none;shadow=0;gradientColor=none;fontStyle=1;fontColor=#FFFFFF;fontSize=14;" vertex="1" parent="1">
          <mxGeometry x="439" y="280" width="71" height="70" as="geometry" />
        </mxCell>
        <mxCell id="0SGao8oZKVO_nWCi-jgn-30" value="" style="shadow=0;dashed=0;html=1;strokeColor=none;fillColor=#006633;labelPosition=center;verticalLabelPosition=bottom;verticalAlign=top;align=center;outlineConnect=0;shape=mxgraph.veeam.checked;" vertex="1" parent="1">
          <mxGeometry x="439" y="280" width="20" height="21" as="geometry" />
        </mxCell>
        <mxCell id="0SGao8oZKVO_nWCi-jgn-31" value="休日" style="rounded=1;fillColor=#F19C99;strokeColor=none;shadow=0;gradientColor=none;fontStyle=1;fontColor=#FFFFFF;fontSize=14;" vertex="1" parent="1">
          <mxGeometry x="520" y="120.5" width="70" height="389" as="geometry" />
        </mxCell>
      </root>
    </mxGraphModel>
  </diagram>
</mxfile>
